<svg xmlns="http://www.w3.org/2000/svg" width="23.444" height="23.444" viewBox="0 0 23.444 23.444">
  <path id="clock-o" d="M141.675,134.349v6.838a.47.47,0,0,1-.488.488H136.3a.47.47,0,0,1-.488-.488v-.977a.47.47,0,0,1,.488-.488h3.419v-5.373a.47.47,0,0,1,.488-.488h.977a.47.47,0,0,1,.488.488Zm6.349,5.373a8.116,8.116,0,0,0-1.114-4.167,8.277,8.277,0,0,0-3.022-3.022,8.348,8.348,0,0,0-8.334,0,8.277,8.277,0,0,0-3.022,3.022,8.348,8.348,0,0,0,0,8.334,8.277,8.277,0,0,0,3.022,3.022,8.348,8.348,0,0,0,8.334,0,8.277,8.277,0,0,0,3.022-3.022A8.116,8.116,0,0,0,148.025,139.722Zm3.419,0a11.466,11.466,0,0,1-1.572,5.884,11.669,11.669,0,0,1-4.266,4.266,11.8,11.8,0,0,1-11.768,0,11.669,11.669,0,0,1-4.266-4.266,11.8,11.8,0,0,1,0-11.768,11.669,11.669,0,0,1,4.266-4.266,11.8,11.8,0,0,1,11.768,0,11.669,11.669,0,0,1,4.266,4.266A11.467,11.467,0,0,1,151.444,139.722Z" transform="translate(-128 -128)" fill="#fff"/>
</svg>
