<svg xmlns="http://www.w3.org/2000/svg" width="23.307" height="23.307" viewBox="0 0 23.307 23.307">
  <path id="instagram" d="M143.538,139.654A3.886,3.886,0,1,0,142.4,142.4,3.743,3.743,0,0,0,143.538,139.654Zm2.094,0a5.958,5.958,0,1,1-1.745-4.234A5.764,5.764,0,0,1,145.632,139.654Zm1.639-6.221a1.4,1.4,0,1,1-.41-.986A1.344,1.344,0,0,1,147.271,133.432Zm-7.617-3.338-1.161-.008q-1.055-.008-1.6,0t-1.464.046a12.022,12.022,0,0,0-1.563.152,6.085,6.085,0,0,0-1.085.281,3.973,3.973,0,0,0-2.215,2.215,6.083,6.083,0,0,0-.281,1.085,12.024,12.024,0,0,0-.152,1.563q-.038.918-.046,1.464t0,1.6q.008,1.055.008,1.161t-.008,1.161q-.008,1.055,0,1.6t.046,1.464a12.024,12.024,0,0,0,.152,1.563,6.083,6.083,0,0,0,.281,1.085,3.973,3.973,0,0,0,2.215,2.215,6.083,6.083,0,0,0,1.085.281,12.022,12.022,0,0,0,1.563.152q.918.038,1.464.046t1.6,0l1.161-.008,1.161.008q1.055.008,1.6,0t1.464-.046a12.021,12.021,0,0,0,1.563-.152,6.083,6.083,0,0,0,1.085-.281,3.973,3.973,0,0,0,2.215-2.215,6.084,6.084,0,0,0,.281-1.085,12.024,12.024,0,0,0,.152-1.563q.038-.918.046-1.464t0-1.6q-.008-1.055-.008-1.161t.008-1.161q.008-1.055,0-1.6t-.046-1.464a12.024,12.024,0,0,0-.152-1.563,6.084,6.084,0,0,0-.281-1.085,3.973,3.973,0,0,0-2.215-2.215,6.085,6.085,0,0,0-1.085-.281,12.021,12.021,0,0,0-1.563-.152q-.918-.038-1.464-.046t-1.6,0Zm11.654,9.56q0,3.475-.076,4.81a6.452,6.452,0,0,1-6.768,6.768q-1.335.076-4.81.076t-4.81-.076a6.452,6.452,0,0,1-6.768-6.768q-.076-1.335-.076-4.81t.076-4.81a6.452,6.452,0,0,1,6.768-6.768q1.335-.076,4.81-.076t4.81.076a6.452,6.452,0,0,1,6.768,6.768Q151.307,136.179,151.307,139.654Z" transform="translate(-128 -128)" fill="#131313"/>
</svg>
