<svg xmlns="http://www.w3.org/2000/svg" xmlns:xlink="http://www.w3.org/1999/xlink" width="32" height="25" viewBox="0 0 32 25">
  <defs>
    <clipPath id="clip-path">
      <rect id="Rectangle_40" data-name="Rectangle 40" width="32" height="25" transform="translate(-0.239 -0.148)" fill="#fff" opacity="0.15"/>
    </clipPath>
  </defs>
  <g id="Mask_Group_1" data-name="Mask Group 1" transform="translate(0.239 0.148)" clip-path="url(#clip-path)">
    <path id="map-marker" d="M397.406,136.6a4.136,4.136,0,1,0-1.212,2.924A3.984,3.984,0,0,0,397.406,136.6Zm4.135,0a6.8,6.8,0,0,1-.533,2.892l-5.88,12.5a1.96,1.96,0,0,1-.767.84,2.09,2.09,0,0,1-2.181,0,1.861,1.861,0,0,1-.751-.84l-5.9-12.5A6.8,6.8,0,0,1,385,136.6a8.271,8.271,0,0,1,16.541,0Z" transform="translate(-377.815 -128.26)" fill="#fff"/>
  </g>
</svg>
