<svg xmlns="http://www.w3.org/2000/svg" width="27.155" height="20.179" viewBox="0 0 27.155 20.179">
  <path id="Path_1" data-name="Path 1" d="M45.3-1094.84a7.475,7.475,0,0,0-8.144-6.47,11.137,11.137,0,0,0-5.766,2.226,1.418,1.418,0,0,1-1.23.247,17.627,17.627,0,0,0-4.632-.39c-3.544.16-6.157,2.094-6.943,5.183a9.36,9.36,0,0,0,.437,5.938c.749,1.85,1.767,3.487,3.861,4.092.34.1.369.334.139.58-.522.558-.262,1.032.179,1.443a2.747,2.747,0,0,0,3.729.2,7.939,7.939,0,0,1,2.158-1.275c-.322.856-.167,1.131.774,1.162a17.614,17.614,0,0,0,8.583-1.66c1.076-.534,1.12-.682.69-1.88a5.594,5.594,0,0,1,2.053,1.293,1.08,1.08,0,0,0,1.855-.372,2.8,2.8,0,0,0,.07-2.04c-.153-.5-.15-.832.36-1.151a3.214,3.214,0,0,0,1.135-1.553A9.587,9.587,0,0,0,45.3-1094.84Zm-20.638,8.263c-.09.537-.387.491-.738.225-1.6-1.207-2.312-2.841-2.361-5.557-.087-2.141,2.008-4.917,5.912-4.462.585.068.693.273.431.812A33.159,33.159,0,0,0,24.667-1086.577Zm13.624-.8a5.442,5.442,0,0,1-2.433,1.668,15.124,15.124,0,0,1-5.024.818,20.655,20.655,0,0,1-2.721-.259c-.509-.085-.724-.242-.536-.828.609-1.894,1.023-3.848,1.724-5.714a6.456,6.456,0,0,1,1.327-2.417,1.445,1.445,0,0,1,2.111-.2,14,14,0,0,1,2.524,2.572,43.588,43.588,0,0,0,3.007,3.462C38.606-1087.951,38.542-1087.692,38.291-1087.374Zm3.5-2.746c-.236.742-.432.79-.979.24-1.179-1.185-2.246-2.472-3.332-3.741a28.582,28.582,0,0,0-2.733-2.872c-.428-.379-.329-.612.088-.91a4.657,4.657,0,0,1,7.411,3.445c.038.344.053.692.079,1.038A11.11,11.11,0,0,1,41.786-1090.12Z" transform="translate(-18.297 1101.328)" fill="#ffeac7"/>
</svg>
