<svg xmlns="http://www.w3.org/2000/svg" width="23.444" height="23.444" viewBox="0 0 23.444 23.444">
  <path id="phone" d="M215.444,146.515a5.5,5.5,0,0,1-.166,1.174,6.613,6.613,0,0,1-.35,1.141,4.464,4.464,0,0,1-2.031,1.765,6.456,6.456,0,0,1-3.1.849,6.606,6.606,0,0,1-.882-.058,6.841,6.841,0,0,1-.957-.208q-.525-.15-.783-.241t-.924-.341q-.666-.25-.816-.3a15.08,15.08,0,0,1-2.914-1.382,28.539,28.539,0,0,1-7.992-7.992,15.079,15.079,0,0,1-1.382-2.914q-.05-.15-.3-.816t-.341-.924q-.092-.258-.241-.783a6.843,6.843,0,0,1-.208-.957,6.611,6.611,0,0,1-.058-.882,6.456,6.456,0,0,1,.849-3.1,4.464,4.464,0,0,1,1.765-2.031,6.611,6.611,0,0,1,1.141-.35,5.5,5.5,0,0,1,1.174-.167.932.932,0,0,1,.35.05q.3.1.882,1.265.183.316.5.9t.583,1.057q.266.475.516.891.05.067.291.416a4.65,4.65,0,0,1,.358.591,1.086,1.086,0,0,1,.117.475,1.382,1.382,0,0,1-.475.833,8.117,8.117,0,0,1-1.032.916,10.034,10.034,0,0,0-1.032.882,1.268,1.268,0,0,0-.475.766,1.125,1.125,0,0,0,.083.375,3.635,3.635,0,0,0,.142.341q.058.117.233.4t.191.316a16.5,16.5,0,0,0,6.81,6.81q.033.017.316.191t.4.233a3.638,3.638,0,0,0,.341.142,1.125,1.125,0,0,0,.375.083,1.268,1.268,0,0,0,.766-.475,10.026,10.026,0,0,0,.882-1.032,8.117,8.117,0,0,1,.916-1.032,1.382,1.382,0,0,1,.833-.475,1.086,1.086,0,0,1,.475.117,4.653,4.653,0,0,1,.591.358q.35.241.416.291.416.25.891.516t1.057.583q.583.316.9.5,1.166.583,1.265.882A.932.932,0,0,1,215.444,146.515Z" transform="translate(-192 -128)" fill="#fff"/>
</svg>
