<svg xmlns="http://www.w3.org/2000/svg" width="23.642" height="19.201" viewBox="0 0 23.642 19.201">
  <path id="twitter" d="M131.642,258.28a10.154,10.154,0,0,1-2.43,2.505q.015.21.015.63a13.765,13.765,0,0,1-.57,3.893,14.068,14.068,0,0,1-1.733,3.728,14.655,14.655,0,0,1-2.768,3.158,12.323,12.323,0,0,1-3.87,2.19,14.166,14.166,0,0,1-4.845.818A13.455,13.455,0,0,1,108,273.026a10.362,10.362,0,0,0,1.17.06,9.487,9.487,0,0,0,6.015-2.07,4.856,4.856,0,0,1-4.53-3.36,6.14,6.14,0,0,0,.915.075,5.012,5.012,0,0,0,1.275-.165,4.767,4.767,0,0,1-2.783-1.673,4.681,4.681,0,0,1-1.1-3.083v-.06a4.806,4.806,0,0,0,2.19.615,4.84,4.84,0,0,1-1.575-1.725,4.856,4.856,0,0,1,.075-4.755,13.734,13.734,0,0,0,4.418,3.578,13.5,13.5,0,0,0,5.573,1.493,5.381,5.381,0,0,1-.12-1.11,4.85,4.85,0,0,1,8.386-3.315,9.5,9.5,0,0,0,3.075-1.17,4.7,4.7,0,0,1-2.13,2.67A9.655,9.655,0,0,0,131.642,258.28Z" transform="translate(-108 -256)" fill="#131313"/>
</svg>
