<svg xmlns="http://www.w3.org/2000/svg" width="20.481" height="26.888" viewBox="0 0 20.481 26.888">
  <path id="yelp" d="M223.549,19.13v1.9q-.015,4.379-.09,4.574a.951.951,0,0,1-.765.6,6.24,6.24,0,0,1-2.722-.57,6.183,6.183,0,0,1-2.437-1.335,1.13,1.13,0,0,1-.255-.54.93.93,0,0,1,.06-.39,4.333,4.333,0,0,1,.51-.7q.45-.555,2.714-3.239.015,0,.9-1.05a1.014,1.014,0,0,1,.592-.367,1.306,1.306,0,0,1,.742.052,1.269,1.269,0,0,1,.562.435A.986.986,0,0,1,223.549,19.13Zm-2.234-3.764a1.051,1.051,0,0,1-.78,1.05l-1.8.585q-4.124,1.32-4.379,1.32a.955.955,0,0,1-.81-.54,3.534,3.534,0,0,1-.255-1.125,12.3,12.3,0,0,1,.015-2.5,4.784,4.784,0,0,1,.45-1.867.887.887,0,0,1,.84-.48,30.411,30.411,0,0,1,3.029,1.155l1.724.7,1.26.51a1.037,1.037,0,0,1,.532.457A1.32,1.32,0,0,1,221.314,15.366ZM233.7,19.82a6,6,0,0,1-1.372,2.414,6.133,6.133,0,0,1-2.032,1.9.9.9,0,0,1-.945-.1q-.21-.15-2.759-4.3l-.7-1.155a1.025,1.025,0,0,1-.172-.69,1.283,1.283,0,0,1,.292-.69,1.042,1.042,0,0,1,1.245-.39q.015.015,1.784.6,3.044.99,3.629,1.192a2.8,2.8,0,0,1,.7.307A.905.905,0,0,1,233.7,19.82Zm-10.077-9.477q.075,1.53-.81,1.829-.87.255-1.709-1.065L215.436,2.14a.947.947,0,0,1,.285-.93,7.787,7.787,0,0,1,3.112-1.342A7.956,7.956,0,0,1,222.2-.6a.915.915,0,0,1,.735.675q.045.27.33,4.581T223.624,10.343Zm9.927,1.62a.912.912,0,0,1-.39.885q-.225.15-4.934,1.29-1,.225-1.365.345l.015-.03a1.033,1.033,0,0,1-.69-.06,1.227,1.227,0,0,1-.555-.48,1.057,1.057,0,0,1,0-1.3q.015-.015,1.125-1.53,1.874-2.564,2.249-3.059a3.232,3.232,0,0,1,.51-.585.94.94,0,0,1,.975-.03,6.023,6.023,0,0,1,1.844,2,6.469,6.469,0,0,1,1.215,2.512Z" transform="translate(-213.235 0.659)" fill="#131313"/>
</svg>
